<?xml version="1.0" encoding="UTF-8"?>
<svg width="184px" height="253px" viewBox="0 0 184 253" version="1.1" xmlns="http://www.w3.org/2000/svg" xmlns:xlink="http://www.w3.org/1999/xlink">
    <!-- Generator: Sketch 51.3 (57544) - http://www.bohemiancoding.com/sketch -->
    <title>athlete_dude</title>
    <desc>Created with Sketch.</desc>
    <defs></defs>
    <g id="athlete_dude" stroke="none" stroke-width="1" fill="none" fill-rule="evenodd">
        <g id="Group-Copy" transform="translate(20.000000, 4.000000)">
            <path d="M28.5314042,244 C12.7994046,244 0,231.318224 0,215.730477 L0,28.2716707 C0,12.6817758 12.7994046,0 28.5314042,0 L103.468596,0 C119.200595,0 132,12.6817758 132,28.2716707 L132,215.730477 C132,231.318224 119.200595,244 103.468596,244 L28.5314042,244 Z" id="Fill-1" stroke="#134B8D" stroke-width="6" fill="#FFFFFF"></path>
            <path d="M81.9999613,93.1190374 C82.0101585,95.2572642 80.0063942,96.9941149 77.5378042,96.9999851 C75.0581671,97.0058553 73.0484543,95.2792775 73.0425059,93.1403169 L73.0000173,79.8772937 C72.9932191,77.7427358 74.9935843,76.0058851 77.4698223,76.0000149 C79.9384124,75.9941447 81.9515242,77.7214563 81.9617215,79.856748 L81.9999613,93.1190374 Z" id="eye-right" fill="#124E8C"></path>
            <path d="M58.9999613,93.1190374 C59.0101585,95.2572642 57.0063942,96.9941149 54.5378042,96.9999851 C52.0581671,97.0058553 50.0484543,95.2792775 50.0425059,93.1403169 L50.0000173,79.8772937 C49.9932191,77.7427358 51.9935843,76.0058851 54.4698223,76.0000149 C56.9384124,75.9941447 58.9515242,77.7214563 58.9617215,79.856748 L58.9999613,93.1190374 Z" id="eye-left" fill="#124E8C"></path>
            <path d="M35,127.155008 C37.9377863,138.478994 50.6917787,147 65.9802218,147 C81.3383453,147 94.1388627,138.401144 97,127" id="mounth" stroke="#134B8D" stroke-width="6" stroke-linecap="round" transform="translate(66.000000, 137.000000) rotate(-360.000000) translate(-66.000000, -137.000000) "></path>
            <polygon id="4-fill" stroke="#134B8D" stroke-width="4" fill="#7EAFDD" points="122 219.825107 111.269582 227 99.7699405 221.17453 99 208.174893 109.730418 201 121.23006 206.824744"></polygon>
            <polygon id="4-border" stroke="#134A8D" stroke-width="6" points="111.269582 227 99.7699405 221.17453 99 208.174893 109.730418 201 121.23006 206.824744 122 219.825107"></polygon>
            <polygon id="3" stroke="#134A8D" stroke-width="6" points="93 219.825107 82.2699645 227 70.7699645 221.17453 70 208.174893 80.7300355 201 92.2307524 206.824744"></polygon>
            <polygon id="2" stroke="#134A8D" stroke-width="6" points="62 219.825107 51.2724496 227 39.772808 221.17453 39 208.174893 49.730418 201 61.2300595 206.824744"></polygon>
            <polygon id="1" stroke="#134A8D" stroke-width="6" points="31 219.825107 20.2699645 227 8.76996447 221.17453 8 208.174893 18.7271679 201 30.2278848 206.824744"></polygon>
            <path d="M86.8709111,16 L43.1290889,16 C27.0670935,16 14,29.0293247 14,45.0448949 L14,159.955105 C14,175.970675 27.0670935,189 43.1290889,189 L86.8709111,189 C102.932906,189 116,175.970675 116,159.955105 L116,45.0448949 C116,29.0293247 102.932906,16 86.8709111,16" id="Path" stroke="#134B8D" stroke-width="6"></path>
        </g>
    </g>
</svg>