<?xml version="1.0" encoding="UTF-8"?>
<svg width="320px" height="72px" viewBox="0 0 320 72" version="1.1" xmlns="http://www.w3.org/2000/svg" xmlns:xlink="http://www.w3.org/1999/xlink">
    <!-- Generator: Sketch 51.3 (57544) - http://www.bohemiancoding.com/sketch -->
    <title>start-line</title>
    <desc>Created with Sketch.</desc>
    <defs></defs>
    <g id="start-line" stroke="none" stroke-width="1" fill="none" fill-rule="evenodd">
        <path d="M0,0 L320,0 L320,72 L0,72 L0,0 Z M20.4609524,57.4095238 L29.032381,57.4095238 L29.032381,48.8761905 L20.4609524,48.8761905 L20.4609524,57.4095238 Z M28.9942857,48.8380952 L37.5657143,48.8380952 L37.5657143,40.3047619 L28.9942857,40.3047619 L28.9942857,48.8380952 Z M37.527619,57.4095238 L46.0990476,57.4095238 L46.0990476,48.8761905 L37.527619,48.8761905 L37.527619,57.4095238 Z M46.0609524,48.8380952 L54.632381,48.8380952 L54.632381,40.3047619 L46.0609524,40.3047619 L46.0609524,48.8380952 Z M54.5942857,57.4095238 L63.1657143,57.4095238 L63.1657143,48.8761905 L54.5942857,48.8761905 L54.5942857,57.4095238 Z M63.127619,48.8380952 L71.6990476,48.8380952 L71.6990476,40.3047619 L63.127619,40.3047619 L63.127619,48.8380952 Z M20.4609524,40.2666667 L29.032381,40.2666667 L29.032381,31.7333333 L20.4609524,31.7333333 L20.4609524,40.2666667 Z M37.527619,40.2666667 L46.0990476,40.2666667 L46.0990476,31.7333333 L37.527619,31.7333333 L37.527619,40.2666667 Z M54.5942857,40.2666667 L63.1657143,40.2666667 L63.1657143,31.7333333 L54.5942857,31.7333333 L54.5942857,40.2666667 Z M28.9942857,31.6952381 L37.5657143,31.6952381 L37.5657143,23.1619048 L28.9942857,23.1619048 L28.9942857,31.6952381 Z M46.0609524,31.6952381 L54.632381,31.6952381 L54.632381,23.1619048 L46.0609524,23.1619048 L46.0609524,31.6952381 Z M63.127619,31.6952381 L71.6990476,31.6952381 L71.6990476,23.1619048 L63.127619,23.1619048 L63.127619,31.6952381 Z M20.4609524,23.1238095 L29.032381,23.1238095 L29.032381,14.5904762 L20.4609524,14.5904762 L20.4609524,23.1238095 Z M37.527619,23.1238095 L46.0990476,23.1238095 L46.0990476,14.5904762 L37.527619,14.5904762 L37.527619,23.1238095 Z M54.5942857,23.1238095 L63.1657143,23.1238095 L63.1657143,14.5904762 L54.5942857,14.5904762 L54.5942857,23.1238095 Z M299.539048,14.5904762 L290.967619,14.5904762 L290.967619,23.1238095 L299.539048,23.1238095 L299.539048,14.5904762 Z M291.005714,23.1619048 L282.434286,23.1619048 L282.434286,31.6952381 L291.005714,31.6952381 L291.005714,23.1619048 Z M282.472381,14.5904762 L273.900952,14.5904762 L273.900952,23.1238095 L282.472381,23.1238095 L282.472381,14.5904762 Z M273.939048,23.1619048 L265.367619,23.1619048 L265.367619,31.6952381 L273.939048,31.6952381 L273.939048,23.1619048 Z M265.405714,14.5904762 L256.834286,14.5904762 L256.834286,23.1238095 L265.405714,23.1238095 L265.405714,14.5904762 Z M256.872381,23.1619048 L248.300952,23.1619048 L248.300952,31.6952381 L256.872381,31.6952381 L256.872381,23.1619048 Z M299.539048,31.7333333 L290.967619,31.7333333 L290.967619,40.2666667 L299.539048,40.2666667 L299.539048,31.7333333 Z M282.472381,31.7333333 L273.900952,31.7333333 L273.900952,40.2666667 L282.472381,40.2666667 L282.472381,31.7333333 Z M265.405714,31.7333333 L256.834286,31.7333333 L256.834286,40.2666667 L265.405714,40.2666667 L265.405714,31.7333333 Z M291.005714,40.3047619 L282.434286,40.3047619 L282.434286,48.8380952 L291.005714,48.8380952 L291.005714,40.3047619 Z M273.939048,40.3047619 L265.367619,40.3047619 L265.367619,48.8380952 L273.939048,48.8380952 L273.939048,40.3047619 Z M256.872381,40.3047619 L248.300952,40.3047619 L248.300952,48.8380952 L256.872381,48.8380952 L256.872381,40.3047619 Z M299.539048,48.8761905 L290.967619,48.8761905 L290.967619,57.4095238 L299.539048,57.4095238 L299.539048,48.8761905 Z M282.472381,48.8761905 L273.900952,48.8761905 L273.900952,57.4095238 L282.472381,57.4095238 L282.472381,48.8761905 Z M265.405714,48.8761905 L256.834286,48.8761905 L256.834286,57.4095238 L265.405714,57.4095238 L265.405714,48.8761905 Z" id="Combined-Shape" fill="#FFFFFF"></path>
        <text id="Início" font-family="MuseoSans-900, Museo Sans" font-size="26" font-weight="bold" fill="#134B8D">
            <tspan x="124.016" y="47">Início</tspan>
        </text>
    </g>
</svg>