<?xml version="1.0" encoding="UTF-8"?>
<svg width="320px" height="140px" viewBox="0 0 320 140" version="1.1" xmlns="http://www.w3.org/2000/svg" xmlns:xlink="http://www.w3.org/1999/xlink">
    <!-- Generator: Sketch 51.3 (57544) - http://www.bohemiancoding.com/sketch -->
    <title>start-line</title>
    <desc>Created with Sketch.</desc>
    <defs></defs>
    <g id="start-line" stroke="none" stroke-width="1" fill="none" fill-rule="evenodd">
        <path d="M0,67 L320,67 L320,139 L0,139 L0,67 Z M20.4609524,124.409524 L29.032381,124.409524 L29.032381,115.87619 L20.4609524,115.87619 L20.4609524,124.409524 Z M28.9942857,115.838095 L37.5657143,115.838095 L37.5657143,107.304762 L28.9942857,107.304762 L28.9942857,115.838095 Z M37.527619,124.409524 L46.0990476,124.409524 L46.0990476,115.87619 L37.527619,115.87619 L37.527619,124.409524 Z M46.0609524,115.838095 L54.632381,115.838095 L54.632381,107.304762 L46.0609524,107.304762 L46.0609524,115.838095 Z M54.5942857,124.409524 L63.1657143,124.409524 L63.1657143,115.87619 L54.5942857,115.87619 L54.5942857,124.409524 Z M63.127619,115.838095 L71.6990476,115.838095 L71.6990476,107.304762 L63.127619,107.304762 L63.127619,115.838095 Z M20.4609524,107.266667 L29.032381,107.266667 L29.032381,98.7333333 L20.4609524,98.7333333 L20.4609524,107.266667 Z M37.527619,107.266667 L46.0990476,107.266667 L46.0990476,98.7333333 L37.527619,98.7333333 L37.527619,107.266667 Z M54.5942857,107.266667 L63.1657143,107.266667 L63.1657143,98.7333333 L54.5942857,98.7333333 L54.5942857,107.266667 Z M28.9942857,98.6952381 L37.5657143,98.6952381 L37.5657143,90.1619048 L28.9942857,90.1619048 L28.9942857,98.6952381 Z M46.0609524,98.6952381 L54.632381,98.6952381 L54.632381,90.1619048 L46.0609524,90.1619048 L46.0609524,98.6952381 Z M63.127619,98.6952381 L71.6990476,98.6952381 L71.6990476,90.1619048 L63.127619,90.1619048 L63.127619,98.6952381 Z M20.4609524,90.1238095 L29.032381,90.1238095 L29.032381,81.5904762 L20.4609524,81.5904762 L20.4609524,90.1238095 Z M37.527619,90.1238095 L46.0990476,90.1238095 L46.0990476,81.5904762 L37.527619,81.5904762 L37.527619,90.1238095 Z M54.5942857,90.1238095 L63.1657143,90.1238095 L63.1657143,81.5904762 L54.5942857,81.5904762 L54.5942857,90.1238095 Z M299.539048,81.5904762 L290.967619,81.5904762 L290.967619,90.1238095 L299.539048,90.1238095 L299.539048,81.5904762 Z M291.005714,90.1619048 L282.434286,90.1619048 L282.434286,98.6952381 L291.005714,98.6952381 L291.005714,90.1619048 Z M282.472381,81.5904762 L273.900952,81.5904762 L273.900952,90.1238095 L282.472381,90.1238095 L282.472381,81.5904762 Z M273.939048,90.1619048 L265.367619,90.1619048 L265.367619,98.6952381 L273.939048,98.6952381 L273.939048,90.1619048 Z M265.405714,81.5904762 L256.834286,81.5904762 L256.834286,90.1238095 L265.405714,90.1238095 L265.405714,81.5904762 Z M256.872381,90.1619048 L248.300952,90.1619048 L248.300952,98.6952381 L256.872381,98.6952381 L256.872381,90.1619048 Z M299.539048,98.7333333 L290.967619,98.7333333 L290.967619,107.266667 L299.539048,107.266667 L299.539048,98.7333333 Z M282.472381,98.7333333 L273.900952,98.7333333 L273.900952,107.266667 L282.472381,107.266667 L282.472381,98.7333333 Z M265.405714,98.7333333 L256.834286,98.7333333 L256.834286,107.266667 L265.405714,107.266667 L265.405714,98.7333333 Z M291.005714,107.304762 L282.434286,107.304762 L282.434286,115.838095 L291.005714,115.838095 L291.005714,107.304762 Z M273.939048,107.304762 L265.367619,107.304762 L265.367619,115.838095 L273.939048,115.838095 L273.939048,107.304762 Z M256.872381,107.304762 L248.300952,107.304762 L248.300952,115.838095 L256.872381,115.838095 L256.872381,107.304762 Z M299.539048,115.87619 L290.967619,115.87619 L290.967619,124.409524 L299.539048,124.409524 L299.539048,115.87619 Z M282.472381,115.87619 L273.900952,115.87619 L273.900952,124.409524 L282.472381,124.409524 L282.472381,115.87619 Z M265.405714,115.87619 L256.834286,115.87619 L256.834286,124.409524 L265.405714,124.409524 L265.405714,115.87619 Z" id="Combined-Shape" fill="#FFFFFF"></path>
        <text id="Início" font-family="MuseoSans-900, Museo Sans" font-size="26" font-weight="bold" fill="#134B8D">
            <tspan x="124.016" y="114">Início</tspan>
        </text>
        <polygon id="Triangle" fill="#FFFFFF" transform="translate(154.500000, 32.000000) rotate(-180.000000) translate(-154.500000, -32.000000) " points="154.5 62 83 2 226 2"></polygon>
        <polygon id="Triangle-Copy-2" fill="#FFFFFF" transform="translate(-20.500000, 32.000000) rotate(-180.000000) translate(20.500000, -32.000000) " points="-20.5 62 -92 2 51 2"></polygon>
        <polygon id="Triangle-Copy" fill="#FFFFFF" transform="translate(329.500000, 32.000000) rotate(-180.000000) translate(-329.500000, -32.000000) " points="329.5 62 258 2 401 2"></polygon>
    </g>
</svg>